HIERARCHY
ROOT newVegas:Hips
{
	OFFSET 0.000000 96.479958 0.000000
	CHANNELS 6 Xposition Yposition Zposition Xrotation Yrotation Zrotation
	JOINT newVegas:Pelvis
	{
		OFFSET 0.000000 0.000000 0.000000
		CHANNELS 3 Xrotation Yrotation Zrotation
		JOINT newVegas:LeftUpLeg
		{
			OFFSET 18.735201 -5.666702 -4.541200
			CHANNELS 3 Xrotation Yrotation Zrotation
			JOINT newVegas:LeftLeg
			{
				OFFSET -0.021200 -31.938179 0.493100
				CHANNELS 3 Xrotation Yrotation Zrotation
				JOINT newVegas:LeftFoot
				{
					OFFSET 0.021200 -31.938179 -4.336299
					CHANNELS 3 Xrotation Yrotation Zrotation
					JOINT newVegas:LeftToeBase
					{
						OFFSET 0.943001 -26.722000 15.023500
						CHANNELS 3 Xrotation Yrotation Zrotation
						End Site
						{
							OFFSET 0.000000 30.670183 0.000000
						}
					}
				}
				JOINT newVegas:Left_PantLeg
				{
					OFFSET 0.663870 -9.044666 -1.108900
					CHANNELS 3 Xrotation Yrotation Zrotation
					End Site
					{
						OFFSET 1.415995 20.635357 0.000000
					}
				}
			}
		}
		JOINT newVegas:RightUpLeg
		{
			OFFSET -18.735201 -5.666702 -4.541200
			CHANNELS 3 Xrotation Yrotation Zrotation
			JOINT newVegas:RightLeg
			{
				OFFSET 0.018946 -31.938133 0.493100
				CHANNELS 3 Xrotation Yrotation Zrotation
				JOINT newVegas:RightFoot
				{
					OFFSET -0.018946 -31.938126 -4.336299
					CHANNELS 3 Xrotation Yrotation Zrotation
					JOINT newVegas:RightToeBase
					{
						OFFSET -0.943001 -26.722004 15.023500
						CHANNELS 3 Xrotation Yrotation Zrotation
						End Site
						{
							OFFSET 0.000000 30.670187 0.000000
						}
					}
				}
				JOINT newVegas:Right_PantLeg
				{
					OFFSET -0.661674 -9.044716 -1.108900
					CHANNELS 3 Xrotation Yrotation Zrotation
					End Site
					{
						OFFSET -1.415958 20.635269 0.000000
					}
				}
			}
		}
	}
	JOINT newVegas:Spine
	{
		OFFSET 0.000000 10.199997 -0.299500
		CHANNELS 3 Xrotation Yrotation Zrotation
		JOINT newVegas:Spine1
		{
			OFFSET 0.000000 11.900002 -1.516600
			CHANNELS 3 Xrotation Yrotation Zrotation
			JOINT newVegas:Spine2
			{
				OFFSET 0.000000 13.600006 -2.842500
				CHANNELS 3 Xrotation Yrotation Zrotation
				JOINT newVegas:Neck
				{
					OFFSET 0.000000 9.624100 -2.890100
					CHANNELS 3 Xrotation Yrotation Zrotation
					JOINT newVegas:Head
					{
						OFFSET 0.000000 14.068802 -1.351900
						CHANNELS 3 Xrotation Yrotation Zrotation
						JOINT newVegas:Hair_Back
						{
							OFFSET 0.000000 3.231903 -17.524799
							CHANNELS 3 Xrotation Yrotation Zrotation
							End Site
							{
								OFFSET 0.000000 19.849884 0.000000
							}
						}
						JOINT newVegas:Hair_Front
						{
							OFFSET 0.000000 31.260406 4.573800
							CHANNELS 3 Xrotation Yrotation Zrotation
							JOINT newVegas:Hair_Front1
							{
								OFFSET 0.000000 2.284103 11.993300
								CHANNELS 3 Xrotation Yrotation Zrotation
								JOINT newVegas:Hair_Front2
								{
									OFFSET 0.000000 2.284103 11.993300
									CHANNELS 3 Xrotation Yrotation Zrotation
									End Site
									{
										OFFSET 0.000000 12.208862 0.000000
									}
								}
							}
						}
						JOINT newVegas:Jowel
						{
							OFFSET 0.000000 -7.458206 6.864100
							CHANNELS 3 Xrotation Yrotation Zrotation
							End Site
							{
								OFFSET 0.000000 19.849884 0.000000
							}
						}
					}
				}
				JOINT newVegas:LeftShoulder
				{
					OFFSET 15.263000 10.923401 -0.547700
					CHANNELS 3 Xrotation Yrotation Zrotation
					JOINT newVegas:LeftArm
					{
						OFFSET 25.438599 -2.830597 -13.032500
						CHANNELS 3 Xrotation Yrotation Zrotation
						JOINT newVegas:LeftForeArm
						{
							OFFSET 29.960503 0.000000 0.000000
							CHANNELS 3 Xrotation Yrotation Zrotation
							JOINT newVegas:LeftHand
							{
								OFFSET 27.849251 0.000000 0.000000
								CHANNELS 3 Xrotation Yrotation Zrotation
								JOINT newVegas:LeftHandThumb1
								{
									OFFSET 4.487587 -3.305161 6.305391
									CHANNELS 3 Xrotation Yrotation Zrotation
									JOINT newVegas:LeftHandThumb2
									{
										OFFSET 5.480453 -3.164139 3.164143
										CHANNELS 3 Xrotation Yrotation Zrotation
										JOINT newVegas:LeftHandThumb3
										{
											OFFSET 5.159721 -2.978973 2.978967
											CHANNELS 3 Xrotation Yrotation Zrotation
											End Site
											{
												OFFSET 2.494507 5.926697 1.738678
											}
										}
									}
								}
								JOINT newVegas:LeftHandIndex1
								{
									OFFSET 18.578728 -0.527832 5.208049
									CHANNELS 3 Xrotation Yrotation Zrotation
									JOINT newVegas:LeftHandIndex2
									{
										OFFSET 3.192009 0.000000 0.000000
										CHANNELS 3 Xrotation Yrotation Zrotation
										JOINT newVegas:LeftHandIndex3
										{
											OFFSET 3.835129 0.000000 0.000000
											CHANNELS 3 Xrotation Yrotation Zrotation
											End Site
											{
												OFFSET -0.034599 3.816971 0.371180
											}
										}
									}
								}
								JOINT newVegas:LeftHandMiddle1
								{
									OFFSET 18.476105 0.000000 0.000000
									CHANNELS 3 Xrotation Yrotation Zrotation
									JOINT newVegas:LeftHandMiddle2
									{
										OFFSET 3.324875 0.000000 0.000000
										CHANNELS 3 Xrotation Yrotation Zrotation
										JOINT newVegas:LeftHandMiddle3
										{
											OFFSET 4.596550 0.000000 0.000000
											CHANNELS 3 Xrotation Yrotation Zrotation
											End Site
											{
												OFFSET 0.057701 4.578827 0.399218
											}
										}
									}
								}
								JOINT newVegas:LeftHandRing1
								{
									OFFSET 17.732719 0.121887 -4.201567
									CHANNELS 3 Xrotation Yrotation Zrotation
									JOINT newVegas:LeftHandRing2
									{
										OFFSET 2.733170 0.000000 0.000000
										CHANNELS 3 Xrotation Yrotation Zrotation
										JOINT newVegas:LeftHandRing3
										{
											OFFSET 3.178268 0.000000 0.000000
											CHANNELS 3 Xrotation Yrotation Zrotation
											End Site
											{
												OFFSET 0.119102 3.170624 0.185394
											}
										}
									}
								}
								JOINT newVegas:LeftHandPinky1
								{
									OFFSET 15.989624 -0.606689 -7.535461
									CHANNELS 3 Xrotation Yrotation Zrotation
									JOINT newVegas:LeftHandPinky2
									{
										OFFSET 2.538986 0.000000 0.000000
										CHANNELS 3 Xrotation Yrotation Zrotation
										JOINT newVegas:LeftHandPinky3
										{
											OFFSET 2.593102 0.000000 0.000000
											CHANNELS 3 Xrotation Yrotation Zrotation
											End Site
											{
												OFFSET -0.150902 2.584198 0.152708
											}
										}
									}
								}
							}
							JOINT newVegas:Left_Sleeve
							{
								OFFSET 0.267448 -0.649796 0.577675
								CHANNELS 3 Xrotation Yrotation Zrotation
								End Site
								{
									OFFSET 0.000000 15.991241 0.000000
								}
							}
							JOINT newVegas:Left_CapeC
							{
								OFFSET 15.715958 -8.608795 -6.935905
								CHANNELS 3 Xrotation Yrotation Zrotation
								JOINT newVegas:Left_CapeC1
								{
									OFFSET 0.000000 -8.688499 0.000000
									CHANNELS 3 Xrotation Yrotation Zrotation
									End Site
									{
										OFFSET 0.000000 8.688499 0.000000
									}
								}
							}
						}
						JOINT newVegas:Left_CapeB
						{
							OFFSET 26.118385 -8.608795 -7.079235
							CHANNELS 3 Xrotation Yrotation Zrotation
							JOINT newVegas:Left_CapeB1
							{
								OFFSET 0.000000 -8.688499 0.000000
								CHANNELS 3 Xrotation Yrotation Zrotation
								End Site
								{
									OFFSET 0.000000 8.688499 0.000000
								}
							}
						}
						JOINT newVegas:Left_CapeA
						{
							OFFSET 5.115639 -8.608795 -10.395809
							CHANNELS 3 Xrotation Yrotation Zrotation
							JOINT newVegas:Left_CapeA1
							{
								OFFSET 0.000000 -8.688499 0.000000
								CHANNELS 3 Xrotation Yrotation Zrotation
								End Site
								{
									OFFSET 0.000000 8.688499 0.000000
								}
							}
						}
					}
				}
				JOINT newVegas:RightShoulder
				{
					OFFSET -15.263000 10.923401 -0.547700
					CHANNELS 3 Xrotation Yrotation Zrotation
					JOINT newVegas:RightArm
					{
						OFFSET -25.438599 -2.830597 -13.032500
						CHANNELS 3 Xrotation Yrotation Zrotation
						JOINT newVegas:RightForeArm
						{
							OFFSET -29.960503 0.000000 0.000000
							CHANNELS 3 Xrotation Yrotation Zrotation
							JOINT newVegas:RightHand
							{
								OFFSET -27.849251 0.000000 0.000000
								CHANNELS 3 Xrotation Yrotation Zrotation
								JOINT newVegas:RightHandThumb1
								{
									OFFSET -4.487587 -3.305161 6.305391
									CHANNELS 3 Xrotation Yrotation Zrotation
									JOINT newVegas:RightHandThumb2
									{
										OFFSET -5.480453 -3.164139 3.164143
										CHANNELS 3 Xrotation Yrotation Zrotation
										JOINT newVegas:RightHandThumb3
										{
											OFFSET -5.159721 -2.978973 2.978967
											CHANNELS 3 Xrotation Yrotation Zrotation
											End Site
											{
												OFFSET -2.494507 5.926697 1.738678
											}
										}
									}
								}
								JOINT newVegas:RightHandIndex1
								{
									OFFSET -18.578728 -0.527832 5.208049
									CHANNELS 3 Xrotation Yrotation Zrotation
									JOINT newVegas:RightHandIndex2
									{
										OFFSET -3.192009 0.000000 0.000000
										CHANNELS 3 Xrotation Yrotation Zrotation
										JOINT newVegas:RightHandIndex3
										{
											OFFSET -3.835129 0.000000 0.000000
											CHANNELS 3 Xrotation Yrotation Zrotation
											End Site
											{
												OFFSET 0.034599 3.816971 0.371180
											}
										}
									}
								}
								JOINT newVegas:RightHandMiddle1
								{
									OFFSET -18.476105 0.000000 0.000000
									CHANNELS 3 Xrotation Yrotation Zrotation
									JOINT newVegas:RightHandMiddle2
									{
										OFFSET -3.324875 0.000000 0.000000
										CHANNELS 3 Xrotation Yrotation Zrotation
										JOINT newVegas:RightHandMiddle3
										{
											OFFSET -4.596550 0.000000 0.000000
											CHANNELS 3 Xrotation Yrotation Zrotation
											End Site
											{
												OFFSET -0.057701 4.578827 0.399218
											}
										}
									}
								}
								JOINT newVegas:RightHandRing1
								{
									OFFSET -17.732719 0.121887 -4.201567
									CHANNELS 3 Xrotation Yrotation Zrotation
									JOINT newVegas:RightHandRing2
									{
										OFFSET -2.733170 0.000000 0.000000
										CHANNELS 3 Xrotation Yrotation Zrotation
										JOINT newVegas:RightHandRing3
										{
											OFFSET -3.178268 0.000000 0.000000
											CHANNELS 3 Xrotation Yrotation Zrotation
											End Site
											{
												OFFSET -0.119102 3.170624 0.185394
											}
										}
									}
								}
								JOINT newVegas:RightHandPinky1
								{
									OFFSET -15.989624 -0.606689 -7.535461
									CHANNELS 3 Xrotation Yrotation Zrotation
									JOINT newVegas:RightHandPinky2
									{
										OFFSET -2.538986 0.000000 0.000000
										CHANNELS 3 Xrotation Yrotation Zrotation
										JOINT newVegas:RightHandPinky3
										{
											OFFSET -2.593102 0.000000 0.000000
											CHANNELS 3 Xrotation Yrotation Zrotation
											End Site
											{
												OFFSET 0.150902 2.584198 0.152708
											}
										}
									}
								}
							}
							JOINT newVegas:Right_CapeC
							{
								OFFSET -15.715958 -8.608795 -6.935905
								CHANNELS 3 Xrotation Yrotation Zrotation
								JOINT newVegas:Right_CapeC1
								{
									OFFSET 0.000000 -8.688499 0.000000
									CHANNELS 3 Xrotation Yrotation Zrotation
									End Site
									{
										OFFSET 0.000000 8.688499 0.000000
									}
								}
							}
							JOINT newVegas:Right_Sleeve
							{
								OFFSET -0.267448 -0.649994 0.577675
								CHANNELS 3 Xrotation Yrotation Zrotation
								End Site
								{
									OFFSET 0.000000 15.991302 0.000000
								}
							}
						}
						JOINT newVegas:Right_CapeA
						{
							OFFSET -5.115540 -8.608795 -10.395824
							CHANNELS 3 Xrotation Yrotation Zrotation
							JOINT newVegas:Right_CapeA1
							{
								OFFSET 0.000000 -8.688499 0.000000
								CHANNELS 3 Xrotation Yrotation Zrotation
								End Site
								{
									OFFSET 0.000000 8.688499 0.000000
								}
							}
						}
						JOINT newVegas:Right_CapeB
						{
							OFFSET -26.118187 -8.608795 -7.079266
							CHANNELS 3 Xrotation Yrotation Zrotation
							JOINT newVegas:Right_CapeB1
							{
								OFFSET 0.000000 -8.688499 0.000000
								CHANNELS 3 Xrotation Yrotation Zrotation
								End Site
								{
									OFFSET 0.000000 8.688499 0.000000
								}
							}
						}
					}
				}
				JOINT newVegas:Left_Collar
				{
					OFFSET 18.625099 8.655502 8.828100
					CHANNELS 3 Xrotation Yrotation Zrotation
					JOINT newVegas:Left_Collar1
					{
						OFFSET 14.783401 10.540405 -1.259500
						CHANNELS 3 Xrotation Yrotation Zrotation
						End Site
						{
							OFFSET 0.000000 18.199875 0.000000
						}
					}
				}
				JOINT newVegas:Collar_Back
				{
					OFFSET 0.000000 15.630707 -20.132601
					CHANNELS 3 Xrotation Yrotation Zrotation
					End Site
					{
						OFFSET 0.000000 22.523010 0.000000
					}
				}
				JOINT newVegas:Left_Peck
				{
					OFFSET 17.239599 -5.132599 25.482599
					CHANNELS 3 Xrotation Yrotation Zrotation
					End Site
					{
						OFFSET 0.000000 22.523010 0.000000
					}
				}
				JOINT newVegas:Right_Peck
				{
					OFFSET -17.239599 -5.132202 25.482599
					CHANNELS 3 Xrotation Yrotation Zrotation
					End Site
					{
						OFFSET 0.000000 22.523010 0.000000
					}
				}
				JOINT newVegas:Right_Collar
				{
					OFFSET -18.625099 8.655792 8.828100
					CHANNELS 3 Xrotation Yrotation Zrotation
					JOINT newVegas:Right_Collar1
					{
						OFFSET -14.783401 10.539993 -1.259500
						CHANNELS 3 Xrotation Yrotation Zrotation
						End Site
						{
							OFFSET 0.000000 18.199631 0.000000
						}
					}
				}
			}
		}
		JOINT newVegas:Belly
		{
			OFFSET 0.000000 -6.540398 9.014299
			CHANNELS 3 Xrotation Yrotation Zrotation
			End Site
			{
				OFFSET 0.000000 11.566666 0.000000
			}
		}
	}
	JOINT newVegas:ElvisFacialAnim_Joint
	{
		OFFSET 1.000000 -95.330101 -8.825800
		CHANNELS 3 Xrotation Yrotation Zrotation
		End Site
		{
			OFFSET 0.000000 35.315800 0.000000
		}
	}
}
MOTION
Frames: 4
Frame Time: 0.033333
-2.774075 89.567650 3.759841 5.105361 -16.624487 9.350762 -0.000001 0.000001 -0.000001 -31.730825 -7.737472 -13.843444 4.420758 -5.012921 -6.451149 23.358798 -26.782377 6.061153 -0.000000 -0.000002 0.000000 -0.000002 0.000000 -0.000001 -0.714122 -14.905761 -13.468234 38.437515 6.293166 -5.752383 -12.607557 -1.304520 9.830093 -0.000006 0.000000 -0.000002 0.000003 0.000000 -0.000000 1.688260 4.763099 1.605633 5.176576 9.320791 2.133006 5.034297 9.323639 2.399603 -0.568266 -0.443479 -0.505847 -0.568268 -0.443480 -0.505865 -0.000000 0.000000 0.000001 -0.568199 -0.443493 -0.505847 -0.568264 -0.443462 -0.505860 0.000001 -0.000000 -0.000001 -0.000000 0.000000 0.000001 0.692876 -0.875653 -14.226436 -18.765234 -25.246486 -72.349277 0.000070 -68.916950 0.000095 -23.218472 18.974696 43.016839 -10.930937 -6.748083 10.337279 -18.089426 8.879702 2.392678 0.000000 -0.000001 0.000001 5.890362 8.200091 -88.621834 6.193164 5.841085 -93.357635 0.000001 -0.000000 -0.000003 7.765532 7.904008 -107.399493 4.299854 5.642351 -74.600815 -0.000002 -0.000003 0.000002 7.314724 8.035589 -105.794986 3.608023 5.405401 -67.422908 0.000002 -0.000002 -0.000002 10.390463 6.780250 -113.877142 1.747952 4.174827 -45.422165 -0.000001 -0.000003 -0.000002 -0.000001 0.000000 -0.000000 -0.000001 0.000000 -0.000000 -0.000002 0.000001 -0.000000 0.000002 0.000001 0.000002 0.000003 0.000001 0.000002 0.000002 0.000001 0.000002 0.000003 0.000001 0.000001 -0.133339 13.109089 18.148176 -38.811037 64.702812 70.004549 0.000028 37.974349 -0.000021 -24.197970 -7.643594 -15.924163 17.912407 17.120581 -32.483553 12.694382 -52.014244 20.210832 -0.000000 -0.000004 -0.000001 0.276335 -8.899008 1.740174 5.888260 -4.491848 105.344118 -0.000001 -0.000000 0.000001 4.166162 -8.600783 42.153209 7.050150 -3.996497 120.947091 -0.000002 0.000001 -0.000000 -0.361102 -4.549260 57.044224 4.703219 -4.656911 90.567120 -0.000001 -0.000001 -0.000000 -5.324593 -0.292090 51.887311 3.526277 -4.518045 75.931595 0.000001 0.000002 -0.000002 -0.000000 -0.000000 0.000000 -0.000000 -0.000001 0.000002 -0.000000 0.000000 0.000002 -0.000001 0.000001 -0.000001 -0.000001 0.000002 -0.000002 -0.000001 0.000001 -0.000001 -0.000001 0.000002 -0.000000 0.000001 0.000001 0.000000 0.000001 0.000001 0.000000 0.000001 0.000001 0.000000 0.000001 0.000001 0.000000 0.000001 0.000001 0.000000 0.000001 0.000001 0.000000 0.000001 0.000001 0.000000 0.000000 0.000000 0.000000 -0.000001 0.000001 -0.000001 
-2.749142 89.556114 3.711589 4.916582 -16.700181 9.285247 -0.000000 -0.000001 -0.000001 -31.686443 -7.743630 -13.941369 4.546582 -5.210639 -6.330856 23.328441 -26.748175 5.939637 0.000000 -0.000002 -0.000000 0.000001 0.000003 0.000001 -0.581466 -14.901238 -13.432567 38.546282 6.266522 -5.852134 -12.692049 -1.329975 9.883678 -0.000001 0.000001 -0.000003 -0.000001 0.000002 -0.000001 1.823400 4.917108 1.616171 5.141137 9.278141 2.060198 5.004470 9.281617 2.317682 -0.521366 -0.456500 -0.405161 -0.521364 -0.456499 -0.405160 0.000001 0.000000 -0.000000 -0.521289 -0.456483 -0.405162 -0.521300 -0.456530 -0.405147 -0.000000 -0.000001 -0.000002 0.000001 0.000000 -0.000000 0.389721 -1.817543 -14.069888 -18.445401 -23.101513 -71.858767 0.000029 -70.238004 0.000056 -26.320578 17.995762 40.829365 -10.240153 -6.477791 9.667177 -12.237057 4.905722 3.823002 -0.000000 -0.000003 -0.000005 5.792852 8.200136 -87.105471 6.192146 5.841150 -93.347690 0.000000 0.000001 -0.000004 6.774352 8.157230 -103.131806 4.632548 5.723185 -77.959458 0.000001 -0.000001 -0.000003 6.590695 8.194743 -102.705438 3.937958 5.530472 -70.884229 -0.000000 -0.000000 -0.000006 9.942207 7.095552 -110.643682 1.807252 4.232277 -46.231088 -0.000001 -0.000004 0.000003 0.000000 -0.000002 0.000001 0.000000 -0.000002 0.000001 -0.000001 -0.000001 0.000001 -0.000001 -0.000001 0.000001 -0.000000 -0.000001 0.000001 -0.000001 -0.000001 0.000001 -0.000000 -0.000001 0.000000 -0.612296 14.249865 18.149030 -39.897051 62.696840 70.906844 -0.000003 38.291898 0.000011 -23.078627 -8.078102 -14.346782 19.390366 16.427180 -31.953500 11.378239 -51.509322 18.923702 0.000002 -0.000001 0.000001 0.197372 -8.506812 1.139261 5.768376 -4.522932 103.818869 -0.000000 0.000001 -0.000000 3.798662 -8.221693 41.913661 6.931616 -4.065042 119.261032 0.000001 0.000001 -0.000000 0.005745 -4.764735 56.635437 4.758126 -4.656069 91.243541 0.000000 0.000002 0.000001 -4.405513 -1.328321 53.590146 3.343656 -4.468466 73.601114 -0.000000 0.000002 -0.000001 -0.000000 0.000001 0.000002 -0.000000 0.000000 0.000004 -0.000001 0.000001 0.000002 0.000001 0.000003 0.000002 0.000001 0.000003 0.000003 0.000001 0.000003 0.000002 0.000001 0.000003 0.000004 -0.000000 -0.000001 -0.000001 -0.000000 -0.000001 -0.000001 -0.000000 -0.000001 -0.000001 -0.000000 -0.000001 -0.000001 -0.000000 -0.000001 -0.000001 -0.000000 -0.000001 -0.000001 -0.000000 -0.000001 -0.000001 -0.000000 0.000000 -0.000001 -0.000000 -0.000001 -0.000001 
-2.720260 89.541214 3.655339 4.715277 -16.789624 9.211216 0.000000 -0.000001 0.000000 -31.734924 -7.794912 -14.038732 4.857457 -5.373238 -6.225342 23.163830 -26.714393 5.800571 -0.000000 0.000002 -0.000000 -0.000000 0.000002 -0.000000 -0.504279 -14.882986 -13.412928 38.740888 6.265655 -5.912525 -12.743542 -1.359999 9.896749 -0.000003 -0.000001 0.000000 -0.000002 0.000000 -0.000001 1.983954 5.067143 1.637677 5.114140 9.197225 1.987424 4.984078 9.201036 2.235354 -0.478336 -0.466390 -0.302721 -0.478330 -0.466385 -0.302713 -0.000000 -0.000000 -0.000001 -0.478262 -0.466391 -0.302718 -0.478402 -0.466357 -0.302725 0.000001 -0.000000 -0.000002 -0.000000 -0.000000 0.000001 0.031732 -2.929857 -13.892382 -17.895710 -20.362877 -71.278372 -0.000033 -72.209750 -0.000022 -29.549871 17.550747 38.554690 -9.472903 -6.189607 8.916915 -5.693300 0.825379 6.019629 0.000001 -0.000001 -0.000001 5.684312 8.198968 -85.424875 6.191241 5.841195 -93.338708 0.000001 -0.000002 0.000000 5.667364 8.298787 -98.383124 5.007213 5.790080 -81.693605 0.000001 0.000002 0.000003 5.785218 8.297820 -99.271875 4.312735 5.645884 -74.731477 0.000001 -0.000001 0.000000 9.419974 7.402785 -107.048025 1.874176 4.295211 -47.131194 -0.000001 -0.000004 0.000004 -0.000001 0.000001 -0.000000 -0.000001 0.000001 -0.000000 -0.000002 0.000001 0.000000 -0.000002 -0.000001 -0.000000 -0.000002 -0.000001 -0.000002 -0.000002 -0.000001 -0.000000 -0.000001 -0.000001 -0.000001 -1.239530 15.755776 18.156706 -40.447824 60.434381 71.370648 0.000022 38.959020 -0.000019 -22.223095 -8.577156 -12.587132 21.062056 15.718946 -31.352040 9.952256 -50.934005 17.536579 -0.000000 -0.000001 -0.000002 0.118201 -8.076077 0.464160 5.637536 -4.553011 102.165246 0.000002 -0.000001 0.000002 3.393340 -7.793960 41.673774 6.799356 -4.136173 117.411676 0.000002 -0.000000 0.000000 0.409312 -5.011028 56.202987 4.822662 -4.654229 92.038486 0.000001 0.000002 0.000001 -3.320829 -2.414938 55.536514 3.144210 -4.405041 71.023039 -0.000000 -0.000002 0.000000 -0.000001 0.000000 -0.000000 -0.000000 0.000000 -0.000001 -0.000002 0.000001 -0.000000 0.000001 -0.000003 0.000001 0.000000 -0.000002 0.000002 0.000001 -0.000003 0.000001 0.000000 -0.000002 0.000003 -0.000001 -0.000000 0.000000 -0.000001 -0.000000 0.000000 -0.000001 -0.000000 0.000000 -0.000001 -0.000000 0.000000 -0.000001 -0.000000 0.000000 -0.000001 -0.000000 0.000000 -0.000001 -0.000000 0.000000 -0.000000 -0.000001 0.000001 0.000000 -0.000001 0.000000 
-2.688125 89.515739 3.593040 4.513656 -16.889787 9.121494 0.000000 0.000000 0.000000 -31.917153 -7.767884 -14.136698 5.469207 -5.614952 -6.112532 22.815605 -26.682856 5.648350 -0.000000 -0.000000 0.000000 0.000001 -0.000001 -0.000000 -0.583400 -14.771606 -13.399111 39.132394 6.235895 -5.955433 -12.650846 -1.391002 9.918363 -0.000004 0.000000 -0.000002 -0.000003 -0.000000 0.000002 2.152166 5.220117 1.667547 5.080767 9.102452 1.908698 4.956837 9.107200 2.146388 -0.444712 -0.481811 -0.167793 -0.444704 -0.481808 -0.167776 -0.000001 0.000000 -0.000000 -0.444843 -0.481752 -0.167797 -0.444577 -0.481860 -0.167773 0.000001 0.000000 -0.000001 -0.000001 0.000000 0.000001 -0.365790 -4.204641 -13.618907 -17.570643 -17.225063 -70.719444 -0.000083 -73.504112 -0.000098 -33.652205 15.877796 33.972258 -8.652005 -5.895106 8.107411 1.388786 -3.103770 9.087333 0.000002 -0.000005 -0.000005 5.567740 8.196145 -83.630072 6.190416 5.841243 -93.330860 0.000001 0.000002 -0.000000 4.497346 8.290840 -93.297748 5.412283 5.834620 -85.691854 -0.000000 0.000001 0.000000 4.929690 8.323680 -95.597384 4.721500 5.741342 -78.850115 0.000001 0.000001 0.000000 8.836930 7.679436 -103.196310 1.946967 4.361454 -48.095689 -0.000003 -0.000007 0.000001 0.000001 -0.000001 0.000001 0.000001 -0.000001 0.000001 0.000000 -0.000001 0.000001 0.000000 -0.000001 -0.000001 0.000001 -0.000001 -0.000003 0.000000 -0.000001 -0.000001 0.000001 -0.000001 -0.000002 -1.987666 17.441317 18.238635 -40.066163 58.491206 71.040804 -0.000008 40.348902 0.000013 -20.052645 -9.250246 -12.271782 22.881357 15.029090 -30.693904 8.465780 -50.302055 16.099873 0.000003 0.000000 -0.000002 0.043639 -7.619460 -0.264625 5.499562 -4.580502 100.432235 0.000000 0.000000 0.000000 2.962786 -7.330034 41.441363 6.656939 -4.206796 115.453911 0.000001 -0.000001 -0.000003 0.836738 -5.281904 55.759902 4.894812 -4.651110 92.927859 -0.000000 0.000002 0.000001 -2.088892 -3.494683 57.677485 2.934881 -4.327637 68.274257 0.000000 -0.000000 -0.000000 0.000002 0.000000 0.000000 0.000001 0.000000 0.000002 0.000001 0.000001 0.000002 -0.000001 0.000000 -0.000003 -0.000002 0.000001 -0.000003 -0.000001 0.000000 -0.000003 -0.000001 0.000001 -0.000001 -0.000001 0.000001 0.000000 -0.000001 0.000001 0.000000 -0.000001 0.000001 0.000000 -0.000001 0.000001 0.000000 -0.000001 0.000001 0.000000 -0.000001 0.000001 0.000000 -0.000001 0.000001 0.000000 -0.000000 0.000000 0.000001 0.000000 0.000000 0.000000 
